# xmcd CD database file
#
# Track frame offsets:
#	150
#	26340
#	51416
#	64098
#	96519
#	114858
#	129484
#	151720
#	170934
#	199756
#
# Disc length: 3050 seconds
#
# Revision: 0
# Processed by: cddbd v1.4PL0 Copyright (c) Steve Scherf et al.
# Submitted via: CDex 1.51
#
DISCID=850be80a
DTITLE=Aman - Ihà
DYEAR=1999
DGENRE=New Age
TTITLE0=Ojaya
TTITLE1=Lhà
TTITLE2=Forest Gate
TTITLE3=Piana
TTITLE4=Agora
TTITLE5=Maguelan
TTITLE6=Med Lake
TTITLE7=Dwar's Dance
TTITLE8=Precious Valley
TTITLE9=Earth Was Singing
EXTD=YEAR: 1999
EXTT0=
EXTT1=
EXTT2=
EXTT3=
EXTT4=
EXTT5=
EXTT6=
EXTT7=
EXTT8=
EXTT9=
PLAYORDER=
